<?xml version="1.0" encoding="UTF-8" standalone="no"?>
<!DOCTYPE svg PUBLIC "-//W3C//DTD SVG 1.1//EN"
 "http://www.w3.org/Graphics/SVG/1.1/DTD/svg11.dtd">
<!-- Generated by graphviz version 2.43.0 (0)
 -->
<!-- Title: snakemake_dag Pages: 1 -->
<svg width="475pt" height="404pt"
 viewBox="0.00 0.00 474.50 404.00" xmlns="http://www.w3.org/2000/svg" xmlns:xlink="http://www.w3.org/1999/xlink">
<g id="graph0" class="graph" transform="scale(1 1) rotate(0) translate(4 400)">
<title>snakemake_dag</title>
<polygon fill="white" stroke="transparent" points="-4,4 -4,-400 470.5,-400 470.5,4 -4,4"/>
<!-- 1 -->
<g id="node1" class="node">
<title>1</title>
<path fill="none" stroke="#56d88a" stroke-width="2" d="M300.5,-108C300.5,-108 211.5,-108 211.5,-108 205.5,-108 199.5,-102 199.5,-96 199.5,-96 199.5,-84 199.5,-84 199.5,-78 205.5,-72 211.5,-72 211.5,-72 300.5,-72 300.5,-72 306.5,-72 312.5,-78 312.5,-84 312.5,-84 312.5,-96 312.5,-96 312.5,-102 306.5,-108 300.5,-108"/>
<text text-anchor="middle" x="256" y="-87.5" font-family="sans" font-size="10.00">mapping_rates_plot</text>
</g>
<!-- 2 -->
<g id="node2" class="node">
<title>2</title>
<path fill="none" stroke="#afd856" stroke-width="2" d="M287,-180C287,-180 225,-180 225,-180 219,-180 213,-174 213,-168 213,-168 213,-156 213,-156 213,-150 219,-144 225,-144 225,-144 287,-144 287,-144 293,-144 299,-150 299,-156 299,-156 299,-168 299,-168 299,-174 293,-180 287,-180"/>
<text text-anchor="middle" x="256" y="-159.5" font-family="sans" font-size="10.00">salmon_quant</text>
</g>
<!-- 2&#45;&gt;1 -->
<g id="edge1" class="edge">
<title>2&#45;&gt;1</title>
<path fill="none" stroke="grey" stroke-width="2" d="M256,-143.7C256,-135.98 256,-126.71 256,-118.11"/>
<polygon fill="grey" stroke="grey" stroke-width="2" points="259.5,-118.1 256,-108.1 252.5,-118.1 259.5,-118.1"/>
</g>
<!-- 9 -->
<g id="node9" class="node">
<title>9</title>
<path fill="none" stroke="#56d86b" stroke-width="2" d="M165,-108C165,-108 135,-108 135,-108 129,-108 123,-102 123,-96 123,-96 123,-84 123,-84 123,-78 129,-72 135,-72 135,-72 165,-72 165,-72 171,-72 177,-78 177,-84 177,-84 177,-96 177,-96 177,-102 171,-108 165,-108"/>
<text text-anchor="middle" x="150" y="-87.5" font-family="sans" font-size="10.00">deseq2</text>
</g>
<!-- 2&#45;&gt;9 -->
<g id="edge9" class="edge">
<title>2&#45;&gt;9</title>
<path fill="none" stroke="grey" stroke-width="2" d="M230.07,-143.88C216.34,-134.81 199.29,-123.55 184.46,-113.76"/>
<polygon fill="grey" stroke="grey" stroke-width="2" points="186.3,-110.78 176.03,-108.19 182.45,-116.62 186.3,-110.78"/>
</g>
<!-- 3 -->
<g id="node3" class="node">
<title>3</title>
<path fill="none" stroke="#d87556" stroke-width="2" d="M236,-252C236,-252 170,-252 170,-252 164,-252 158,-246 158,-240 158,-240 158,-228 158,-228 158,-222 164,-216 170,-216 170,-216 236,-216 236,-216 242,-216 248,-222 248,-228 248,-228 248,-240 248,-240 248,-246 242,-252 236,-252"/>
<text text-anchor="middle" x="203" y="-231.5" font-family="sans" font-size="10.00">trim_galore_pe</text>
</g>
<!-- 3&#45;&gt;2 -->
<g id="edge2" class="edge">
<title>3&#45;&gt;2</title>
<path fill="none" stroke="grey" stroke-width="2" d="M216.1,-215.7C222.39,-207.39 230.05,-197.28 236.96,-188.14"/>
<polygon fill="grey" stroke="grey" stroke-width="2" points="239.8,-190.19 243.05,-180.1 234.22,-185.96 239.8,-190.19"/>
</g>
<!-- 4 -->
<g id="node4" class="node">
<title>4</title>
<path fill="none" stroke="#ced856" stroke-width="2" d="M339.5,-252C339.5,-252 278.5,-252 278.5,-252 272.5,-252 266.5,-246 266.5,-240 266.5,-240 266.5,-228 266.5,-228 266.5,-222 272.5,-216 278.5,-216 278.5,-216 339.5,-216 339.5,-216 345.5,-216 351.5,-222 351.5,-228 351.5,-228 351.5,-240 351.5,-240 351.5,-246 345.5,-252 339.5,-252"/>
<text text-anchor="middle" x="309" y="-231.5" font-family="sans" font-size="10.00">salmon_index</text>
</g>
<!-- 4&#45;&gt;2 -->
<g id="edge3" class="edge">
<title>4&#45;&gt;2</title>
<path fill="none" stroke="grey" stroke-width="2" d="M295.9,-215.7C289.61,-207.39 281.95,-197.28 275.04,-188.14"/>
<polygon fill="grey" stroke="grey" stroke-width="2" points="277.78,-185.96 268.95,-180.1 272.2,-190.19 277.78,-185.96"/>
</g>
<!-- 5 -->
<g id="node5" class="node">
<title>5</title>
<path fill="none" stroke="#d89c56" stroke-width="2" d="M329,-396C329,-396 217,-396 217,-396 211,-396 205,-390 205,-384 205,-384 205,-372 205,-372 205,-366 211,-360 217,-360 217,-360 329,-360 329,-360 335,-360 341,-366 341,-372 341,-372 341,-384 341,-384 341,-390 335,-396 329,-396"/>
<text text-anchor="middle" x="273" y="-375.5" font-family="sans" font-size="10.00">get_transcriptome_fasta</text>
</g>
<!-- 5&#45;&gt;4 -->
<g id="edge4" class="edge">
<title>5&#45;&gt;4</title>
<path fill="none" stroke="grey" stroke-width="2" d="M276.14,-359.82C279.55,-341.8 285.41,-312.73 292,-288 294.3,-279.37 297.15,-270.06 299.86,-261.69"/>
<polygon fill="grey" stroke="grey" stroke-width="2" points="303.23,-262.65 303.05,-252.06 296.59,-260.45 303.23,-262.65"/>
</g>
<!-- 6 -->
<g id="node6" class="node">
<title>6</title>
<path fill="none" stroke="#d8bc56" stroke-width="2" d="M376.5,-324C376.5,-324 313.5,-324 313.5,-324 307.5,-324 301.5,-318 301.5,-312 301.5,-312 301.5,-300 301.5,-300 301.5,-294 307.5,-288 313.5,-288 313.5,-288 376.5,-288 376.5,-288 382.5,-288 388.5,-294 388.5,-300 388.5,-300 388.5,-312 388.5,-312 388.5,-318 382.5,-324 376.5,-324"/>
<text text-anchor="middle" x="345" y="-303.5" font-family="sans" font-size="10.00">salmon_decoy</text>
</g>
<!-- 5&#45;&gt;6 -->
<g id="edge6" class="edge">
<title>5&#45;&gt;6</title>
<path fill="none" stroke="grey" stroke-width="2" d="M290.8,-359.7C299.6,-351.14 310.38,-340.66 320,-331.3"/>
<polygon fill="grey" stroke="grey" stroke-width="2" points="322.68,-333.58 327.41,-324.1 317.8,-328.57 322.68,-333.58"/>
</g>
<!-- 6&#45;&gt;4 -->
<g id="edge5" class="edge">
<title>6&#45;&gt;4</title>
<path fill="none" stroke="grey" stroke-width="2" d="M336.1,-287.7C332,-279.73 327.05,-270.1 322.51,-261.26"/>
<polygon fill="grey" stroke="grey" stroke-width="2" points="325.48,-259.4 317.8,-252.1 319.26,-262.6 325.48,-259.4"/>
</g>
<!-- 7 -->
<g id="node7" class="node">
<title>7</title>
<path fill="none" stroke="#88d856" stroke-width="2" d="M454.5,-396C454.5,-396 371.5,-396 371.5,-396 365.5,-396 359.5,-390 359.5,-384 359.5,-384 359.5,-372 359.5,-372 359.5,-366 365.5,-360 371.5,-360 371.5,-360 454.5,-360 454.5,-360 460.5,-360 466.5,-366 466.5,-372 466.5,-372 466.5,-384 466.5,-384 466.5,-390 460.5,-396 454.5,-396"/>
<text text-anchor="middle" x="413" y="-375.5" font-family="sans" font-size="10.00">get_genome_fasta</text>
</g>
<!-- 7&#45;&gt;6 -->
<g id="edge7" class="edge">
<title>7&#45;&gt;6</title>
<path fill="none" stroke="grey" stroke-width="2" d="M396.19,-359.7C387.87,-351.14 377.69,-340.66 368.61,-331.3"/>
<polygon fill="grey" stroke="grey" stroke-width="2" points="371.09,-328.84 361.62,-324.1 366.07,-333.72 371.09,-328.84"/>
</g>
<!-- 8 -->
<g id="node8" class="node">
<title>8</title>
<path fill="none" stroke="#56d8a9" stroke-width="2" d="M46,-36C46,-36 12,-36 12,-36 6,-36 0,-30 0,-24 0,-24 0,-12 0,-12 0,-6 6,0 12,0 12,0 46,0 46,0 52,0 58,-6 58,-12 58,-12 58,-24 58,-24 58,-30 52,-36 46,-36"/>
<text text-anchor="middle" x="29" y="-15.5" font-family="sans" font-size="10.00">pca_plot</text>
</g>
<!-- 9&#45;&gt;8 -->
<g id="edge8" class="edge">
<title>9&#45;&gt;8</title>
<path fill="none" stroke="grey" stroke-width="2" d="M122.85,-73.29C106.47,-63.82 85.35,-51.6 67.3,-41.16"/>
<polygon fill="grey" stroke="grey" stroke-width="2" points="68.59,-37.86 58.18,-35.88 65.08,-43.92 68.59,-37.86"/>
</g>
<!-- 11 -->
<g id="node11" class="node">
<title>11</title>
<path fill="none" stroke="#569ad8" stroke-width="2" d="M212,-36C212,-36 88,-36 88,-36 82,-36 76,-30 76,-24 76,-24 76,-12 76,-12 76,-6 82,0 88,0 88,0 212,0 212,0 218,0 224,-6 224,-12 224,-12 224,-24 224,-24 224,-30 218,-36 212,-36"/>
<text text-anchor="middle" x="150" y="-15.5" font-family="sans" font-size="10.00">heatmap_sample_distance</text>
</g>
<!-- 9&#45;&gt;11 -->
<g id="edge11" class="edge">
<title>9&#45;&gt;11</title>
<path fill="none" stroke="grey" stroke-width="2" d="M150,-71.7C150,-63.98 150,-54.71 150,-46.11"/>
<polygon fill="grey" stroke="grey" stroke-width="2" points="153.5,-46.1 150,-36.1 146.5,-46.1 153.5,-46.1"/>
</g>
<!-- 12 -->
<g id="node12" class="node">
<title>12</title>
<path fill="none" stroke="#56d8d0" stroke-width="2" d="M309.5,-36C309.5,-36 254.5,-36 254.5,-36 248.5,-36 242.5,-30 242.5,-24 242.5,-24 242.5,-12 242.5,-12 242.5,-6 248.5,0 254.5,0 254.5,0 309.5,0 309.5,0 315.5,0 321.5,-6 321.5,-12 321.5,-12 321.5,-24 321.5,-24 321.5,-30 315.5,-36 309.5,-36"/>
<text text-anchor="middle" x="282" y="-15.5" font-family="sans" font-size="10.00">volcano_plot</text>
</g>
<!-- 9&#45;&gt;12 -->
<g id="edge12" class="edge">
<title>9&#45;&gt;12</title>
<path fill="none" stroke="grey" stroke-width="2" d="M177.03,-74.67C195.43,-64.91 220.12,-51.82 240.93,-40.78"/>
<polygon fill="grey" stroke="grey" stroke-width="2" points="242.69,-43.81 249.88,-36.03 239.41,-37.62 242.69,-43.81"/>
</g>
<!-- 10 -->
<g id="node10" class="node">
<title>10</title>
<path fill="none" stroke="#567bd8" stroke-width="2" d="M183,-180C183,-180 109,-180 109,-180 103,-180 97,-174 97,-168 97,-168 97,-156 97,-156 97,-150 103,-144 109,-144 109,-144 183,-144 183,-144 189,-144 195,-150 195,-156 195,-156 195,-168 195,-168 195,-174 189,-180 183,-180"/>
<text text-anchor="middle" x="146" y="-159.5" font-family="sans" font-size="10.00">get_gencode_gtf</text>
</g>
<!-- 10&#45;&gt;9 -->
<g id="edge10" class="edge">
<title>10&#45;&gt;9</title>
<path fill="none" stroke="grey" stroke-width="2" d="M146.99,-143.7C147.43,-135.98 147.96,-126.71 148.45,-118.11"/>
<polygon fill="grey" stroke="grey" stroke-width="2" points="151.95,-118.29 149.02,-108.1 144.96,-117.89 151.95,-118.29"/>
</g>
</g>
</svg>
